<?xml version="1.0" encoding="UTF-8" standalone="no"?><svg xmlns="http://www.w3.org/2000/svg" xmlns:xlink="http://www.w3.org/1999/xlink" clip-rule="evenodd" stroke-miterlimit="4.00" viewBox="0 0 1024 768"><desc>SVG generated by Keynote</desc><defs></defs><g transform="matrix(1.00, 0.00, -0.00, -1.00, 0.0, 768.0)"><path d="M 0.0 768.0 L 1024.0 768.0 L 1024.0 0.0 L 0.0 0.0 Z M 0.0 768.0 " fill="#00EBF9"></path><text xml:space="preserve" font-family="HelveticaNeue-Bold" font-weight="bold" font-size="68.0" fill="#FEFFFF" transform="matrix(1.00, 0.00, -0.00, -1.00, 139.0, 398.0)">C</text><text xml:space="preserve" font-family="HelveticaNeue-Bold" font-weight="bold" font-size="68.0" fill="#FEFFFF" transform="matrix(1.00, 0.00, -0.00, -1.00, 189.4, 398.0)">H</text><text xml:space="preserve" font-family="HelveticaNeue-Bold" font-weight="bold" font-size="68.0" fill="#FEFFFF" transform="matrix(1.00, 0.00, -0.00, -1.00, 239.8, 398.0)">R</text><text xml:space="preserve" font-family="HelveticaNeue-Bold" font-weight="bold" font-size="68.0" fill="#FEFFFF" transform="matrix(1.00, 0.00, -0.00, -1.00, 288.9, 398.0)">O</text><text xml:space="preserve" font-family="HelveticaNeue-Bold" font-weight="bold" font-size="68.0" fill="#FEFFFF" transform="matrix(1.00, 0.00, -0.00, -1.00, 341.8, 398.0)">M</text><text xml:space="preserve" font-family="HelveticaNeue-Bold" font-weight="bold" font-size="68.0" fill="#FEFFFF" transform="matrix(1.00, 0.00, -0.00, -1.00, 403.5, 398.0)">E</text><text xml:space="preserve" font-family="HelveticaNeue-Bold" font-weight="bold" font-size="68.0" fill="#FEFFFF" transform="matrix(1.00, 0.00, -0.00, -1.00, 447.5, 398.0)"> </text><text xml:space="preserve" font-family="HelveticaNeue-Bold" font-weight="bold" font-size="68.0" fill="#FEFFFF" transform="matrix(1.00, 0.00, -0.00, -1.00, 466.4, 398.0)">D</text><text xml:space="preserve" font-family="HelveticaNeue-Bold" font-weight="bold" font-size="68.0" fill="#FEFFFF" transform="matrix(1.00, 0.00, -0.00, -1.00, 516.8, 398.0)">E</text><text xml:space="preserve" font-family="HelveticaNeue-Bold" font-weight="bold" font-size="68.0" fill="#FEFFFF" transform="matrix(1.00, 0.00, -0.00, -1.00, 560.9, 398.0)">V</text><text xml:space="preserve" font-family="HelveticaNeue-Bold" font-weight="bold" font-size="68.0" fill="#FEFFFF" transform="matrix(1.00, 0.00, -0.00, -1.00, 603.7, 398.0)"> </text><text xml:space="preserve" font-family="HelveticaNeue-Bold" font-weight="bold" font-size="68.0" fill="#FEFFFF" transform="matrix(1.00, 0.00, -0.00, -1.00, 622.6, 398.0)">S</text><text xml:space="preserve" font-family="HelveticaNeue-Bold" font-weight="bold" font-size="68.0" fill="#FEFFFF" transform="matrix(1.00, 0.00, -0.00, -1.00, 666.7, 398.0)">U</text><text xml:space="preserve" font-family="HelveticaNeue-Bold" font-weight="bold" font-size="68.0" fill="#FEFFFF" transform="matrix(1.00, 0.00, -0.00, -1.00, 717.1, 398.0)">M</text><text xml:space="preserve" font-family="HelveticaNeue-Bold" font-weight="bold" font-size="68.0" fill="#FEFFFF" transform="matrix(1.00, 0.00, -0.00, -1.00, 778.8, 398.0)">M</text><text xml:space="preserve" font-family="HelveticaNeue-Bold" font-weight="bold" font-size="68.0" fill="#FEFFFF" transform="matrix(1.00, 0.00, -0.00, -1.00, 840.5, 398.0)">I</text><text xml:space="preserve" font-family="HelveticaNeue-Bold" font-weight="bold" font-size="68.0" fill="#FEFFFF" transform="matrix(1.00, 0.00, -0.00, -1.00, 860.5, 398.0)">T</text><image xlink:href="29B57110505C0C112D74E9B63728014E.png" width="207.00" height="35.00" transform="matrix(1.00, 0.00, -0.00, -1.00, 410.0, 365.0)"></image><text xml:space="preserve" font-family="Helvetica-Bold" font-weight="bold" font-size="32.0" fill="#FEFFFF" transform="matrix(1.00, 0.00, -0.00, -1.00, 413.0, 337.0)">T</text><text xml:space="preserve" font-family="Helvetica-Bold" font-weight="bold" font-size="32.0" fill="#FEFFFF" transform="matrix(1.00, 0.00, -0.00, -1.00, 430.2, 337.0)">A</text><text xml:space="preserve" font-family="Helvetica-Bold" font-weight="bold" font-size="32.0" fill="#FEFFFF" transform="matrix(1.00, 0.00, -0.00, -1.00, 453.3, 337.0)">K</text><text xml:space="preserve" font-family="Helvetica-Bold" font-weight="bold" font-size="32.0" fill="#FEFFFF" transform="matrix(1.00, 0.00, -0.00, -1.00, 476.4, 337.0)">E</text><text xml:space="preserve" font-family="Helvetica-Bold" font-weight="bold" font-size="32.0" fill="#FEFFFF" transform="matrix(1.00, 0.00, -0.00, -1.00, 497.8, 337.0)">A</text><text xml:space="preserve" font-family="Helvetica-Bold" font-weight="bold" font-size="32.0" fill="#FEFFFF" transform="matrix(1.00, 0.00, -0.00, -1.00, 519.1, 337.0)">W</text><text xml:space="preserve" font-family="Helvetica-Bold" font-weight="bold" font-size="32.0" fill="#FEFFFF" transform="matrix(1.00, 0.00, -0.00, -1.00, 547.6, 337.0)">A</text><text xml:space="preserve" font-family="Helvetica-Bold" font-weight="bold" font-size="32.0" fill="#FEFFFF" transform="matrix(1.00, 0.00, -0.00, -1.00, 567.8, 337.0)">Y</text><text xml:space="preserve" font-family="Helvetica-Bold" font-weight="bold" font-size="32.0" fill="#FEFFFF" transform="matrix(1.00, 0.00, -0.00, -1.00, 589.1, 337.0)">S</text></g></svg>