<?xml version="1.0" encoding="UTF-8" standalone="no"?><svg xmlns="http://www.w3.org/2000/svg" xmlns:xlink="http://www.w3.org/1999/xlink" clip-rule="evenodd" stroke-miterlimit="4.00" viewBox="0 0 1024 768"><desc>SVG generated by Keynote</desc><defs></defs><g transform="matrix(1.00, 0.00, -0.00, -1.00, 0.0, 768.0)"><path d="M 0.0 768.0 L 1024.0 768.0 L 1024.0 0.0 L 0.0 0.0 Z M 0.0 768.0 " fill="#FEFFFF"></path><image xlink:href="../../64F064E3-537F-4647-A5AF-415FD89233C8/assets/967F65B9D27304C2E06D916B9D59DDCD.png" width="961.00" height="540.00" transform="matrix(1.45, 0.00, -0.00, -1.45, -133.0, 775.0)"></image><g opacity="0.61"><g><clipPath id="clip-5"><path d="M 0.0 0.0 L 1024.0 0.0 L 1024.0 768.0 L 0.0 768.0 Z M 0.0 0.0 "></path></clipPath><g clip-path="url(#clip-5)"><path d="M -8.0 769.0 L 1032.0 769.0 L 1032.0 -1.0 L -8.0 -1.0 Z M -8.0 769.0 " fill="#000000"></path></g></g></g><text xml:space="preserve" font-family="Helvetica-Bold" font-weight="bold" font-size="64.0" fill="#FEFFFF" transform="matrix(1.00, 0.00, -0.00, -1.00, 196.0, 360.0)">S</text><text xml:space="preserve" font-family="Helvetica-Bold" font-weight="bold" font-size="64.0" fill="#FEFFFF" transform="matrix(1.00, 0.00, -0.00, -1.00, 238.7, 360.0)">E</text><text xml:space="preserve" font-family="Helvetica-Bold" font-weight="bold" font-size="64.0" fill="#FEFFFF" transform="matrix(1.00, 0.00, -0.00, -1.00, 281.4, 360.0)">R</text><text xml:space="preserve" font-family="Helvetica-Bold" font-weight="bold" font-size="64.0" fill="#FEFFFF" transform="matrix(1.00, 0.00, -0.00, -1.00, 326.5, 360.0)">V</text><text xml:space="preserve" font-family="Helvetica-Bold" font-weight="bold" font-size="64.0" fill="#FEFFFF" transform="matrix(1.00, 0.00, -0.00, -1.00, 369.2, 360.0)">I</text><text xml:space="preserve" font-family="Helvetica-Bold" font-weight="bold" font-size="64.0" fill="#FEFFFF" transform="matrix(1.00, 0.00, -0.00, -1.00, 386.9, 360.0)">C</text><text xml:space="preserve" font-family="Helvetica-Bold" font-weight="bold" font-size="64.0" fill="#FEFFFF" transform="matrix(1.00, 0.00, -0.00, -1.00, 433.2, 360.0)">E</text><text xml:space="preserve" font-family="Helvetica-Bold" font-weight="bold" font-size="64.0" fill="#FEFFFF" transform="matrix(1.00, 0.00, -0.00, -1.00, 475.9, 360.0)"> </text><text xml:space="preserve" font-family="Helvetica-Bold" font-weight="bold" font-size="64.0" fill="#FEFFFF" transform="matrix(1.00, 0.00, -0.00, -1.00, 493.6, 360.0)">W</text><text xml:space="preserve" font-family="Helvetica-Bold" font-weight="bold" font-size="64.0" fill="#FEFFFF" transform="matrix(1.00, 0.00, -0.00, -1.00, 554.0, 360.0)">O</text><text xml:space="preserve" font-family="Helvetica-Bold" font-weight="bold" font-size="64.0" fill="#FEFFFF" transform="matrix(1.00, 0.00, -0.00, -1.00, 603.8, 360.0)">R</text><text xml:space="preserve" font-family="Helvetica-Bold" font-weight="bold" font-size="64.0" fill="#FEFFFF" transform="matrix(1.00, 0.00, -0.00, -1.00, 650.0, 360.0)">K</text><text xml:space="preserve" font-family="Helvetica-Bold" font-weight="bold" font-size="64.0" fill="#FEFFFF" transform="matrix(1.00, 0.00, -0.00, -1.00, 696.2, 360.0)">E</text><text xml:space="preserve" font-family="Helvetica-Bold" font-weight="bold" font-size="64.0" fill="#FEFFFF" transform="matrix(1.00, 0.00, -0.00, -1.00, 738.9, 360.0)">R</text><text xml:space="preserve" font-family="Helvetica-Bold" font-weight="bold" font-size="64.0" fill="#FEFFFF" transform="matrix(1.00, 0.00, -0.00, -1.00, 785.2, 360.0)">S</text></g></svg>